<?xml version="1.0" standalone="no"?>
<!DOCTYPE svg PUBLIC "-//W3C//DTD SVG 20010904//EN"
 "http://www.w3.org/TR/2001/REC-SVG-20010904/DTD/svg10.dtd">
<svg version="1.0" xmlns="http://www.w3.org/2000/svg"
 width="626.000000pt" height="417.000000pt" viewBox="0 0 626.000000 417.000000"
 preserveAspectRatio="xMidYMid meet">

<g transform="translate(0.000000,417.000000) scale(0.100000,-0.100000)"
fill="#000000" stroke="none">
<path d="M1399 2631 l-24 -19 -5 -314 c-3 -172 -1 -319 4 -325 5 -7 19 -13 32
-13 l24 0 0 289 0 289 31 26 31 26 1610 -2 1610 -3 24 -28 24 -28 0 -293 c0
-305 0 -304 43 -319 16 -6 17 14 17 339 l0 345 -25 24 -24 25 -1674 0 c-1634
0 -1675 0 -1698 -19z"/>
<path d="M1888 2536 c-79 -29 -78 -27 -224 -264 -217 -353 -257 -412 -275
-412 -15 0 -19 -7 -19 -32 0 -17 -13 -55 -30 -85 -16 -29 -30 -57 -30 -61 0
-5 28 -29 61 -53 34 -24 82 -59 107 -77 29 -22 52 -32 67 -29 15 2 22 0 18 -8
-2 -7 7 -15 21 -19 29 -7 33 -18 12 -36 -12 -9 -25 -7 -62 9 -25 12 -55 21
-65 21 -19 0 -196 75 -216 92 -8 7 -20 -5 -42 -43 -35 -61 -46 -112 -36 -169
10 -59 42 -100 122 -152 l71 -47 1 -138 c2 -133 3 -139 27 -163 l24 -25 670
-3 670 -2 0 -109 0 -109 -79 -3 c-84 -4 -121 -23 -121 -61 0 -17 -24 -18 -633
-18 -667 0 -659 -1 -715 43 -7 5 -30 10 -52 11 -37 1 -40 -1 -40 -26 0 -28 0
-28 -70 -28 -38 0 -70 4 -70 9 0 5 -14 14 -32 20 -17 6 -39 17 -47 25 -9 7
-35 16 -59 20 l-42 6 0 -40 0 -40 -225 0 c-143 0 -225 -4 -225 -10 0 -7 938
-10 2795 -10 1857 0 2795 3 2795 10 0 6 -91 10 -252 10 -139 0 -248 4 -241 8
11 7 63 79 63 87 0 2 -6 2 -14 -1 -8 -3 -17 0 -22 7 -4 8 -3 10 4 5 22 -13 32
4 18 27 -8 12 -20 74 -26 137 -11 114 -21 164 -60 310 -14 53 -23 134 -31 275
-8 145 -15 210 -27 237 l-17 38 -40 -38 c-22 -21 -48 -48 -57 -60 -10 -12 -26
-22 -36 -22 -27 0 -22 40 10 78 14 17 32 48 38 69 7 21 17 43 21 49 5 6 8 26
6 45 -2 19 0 42 5 52 20 40 -6 33 -51 -13 -40 -42 -53 -50 -83 -50 -30 0 -37
-4 -40 -22 -4 -30 -41 -32 -46 -3 -2 18 -2 18 8 3 13 -21 30 -23 30 -4 0 7 -8
16 -17 19 -10 2 -26 8 -36 12 -14 6 -17 2 -16 -21 0 -16 -11 -73 -25 -128
l-26 -98 15 -132 c13 -107 50 -390 91 -690 9 -60 46 -109 78 -101 17 5 18 4 6
-4 -8 -6 -23 -8 -32 -5 -10 3 -18 1 -18 -4 0 -5 -19 -17 -42 -27 -24 -9 -51
-21 -60 -26 -10 -5 -322 -9 -713 -9 -669 0 -695 1 -695 18 0 38 -37 57 -121
61 l-79 3 0 109 0 109 290 0 290 0 0 35 0 35 -1254 0 -1253 0 -27 25 c-24 22
-26 30 -26 108 l0 85 43 -15 c28 -10 59 -13 95 -8 80 10 123 49 212 191 187
300 514 833 530 863 7 14 11 49 8 90 -6 100 -32 133 -173 221 -128 79 -184 94
-257 66z m111 -77 c35 -32 43 -65 27 -103 -28 -67 -92 -85 -145 -40 -24 20
-31 34 -31 63 0 20 7 47 16 59 31 44 97 55 133 21z m-99 -234 c11 -13 11 -19
-3 -33 -16 -15 -19 -15 -44 0 -34 21 -38 31 -18 52 18 17 40 11 65 -19z m285
-35 c0 -18 -6 -26 -23 -28 -24 -4 -38 18 -28 44 3 9 15 14 28 12 17 -2 23 -10
23 -28z m-207 -6 c23 -16 29 -48 11 -59 -16 -11 -69 16 -69 34 0 16 18 41 30
41 3 0 16 -7 28 -16z m-143 -30 c29 -19 29 -22 10 -47 -13 -18 -15 -18 -44 -1
-33 20 -38 33 -19 52 16 16 24 15 53 -4z m236 -31 c33 -20 34 -22 16 -47 -13
-17 -15 -17 -45 -2 -36 18 -36 19 -22 47 13 23 15 23 51 2z m-146 -25 c28 -12
34 -45 9 -55 -23 -8 -64 14 -64 35 0 34 14 39 55 20z m-115 -37 c0 -41 -26
-51 -65 -25 -29 19 -31 27 -9 48 14 14 18 14 45 1 16 -9 29 -20 29 -24z m227
-33 c9 -7 10 -16 2 -29 -12 -24 -30 -24 -59 -1 -19 16 -21 22 -11 40 10 19 15
21 34 11 12 -6 28 -16 34 -21z m-158 -7 c17 -13 22 -23 16 -39 -8 -26 -22 -28
-53 -6 -25 17 -28 34 -10 52 15 15 18 15 47 -7z m96 -57 c28 -18 32 -36 11
-53 -11 -10 -21 -9 -45 4 -35 18 -38 27 -15 49 19 20 19 20 49 0z m-171 -31
c41 -19 51 -37 31 -57 -8 -8 -15 -19 -15 -24 0 -5 -7 -15 -15 -22 -12 -10 -21
-8 -50 10 -40 25 -43 40 -14 81 24 34 19 33 63 12z m-174 -80 c0 -27 -31 -73
-49 -73 -22 0 -71 37 -71 53 0 6 10 25 22 43 l23 33 37 -21 c21 -12 38 -28 38
-35z m106 -54 c19 -11 34 -23 34 -25 0 -2 -11 -22 -25 -45 l-26 -40 -39 22
c-45 25 -47 34 -22 78 20 36 33 38 78 10z m3519 1 c-3 -5 -11 -10 -16 -10 -6
0 -7 5 -4 10 3 6 11 10 16 10 6 0 7 -4 4 -10z m-3365 -109 c0 -9 -10 -29 -23
-45 -25 -31 -43 -31 -86 3 l-25 19 27 41 28 42 39 -22 c22 -13 40 -30 40 -38z
m-200 -49 c0 -16 -47 -72 -60 -72 -8 0 -28 11 -45 24 l-30 24 19 34 c11 18 24
36 29 40 10 6 87 -39 87 -50z m-349 -201 c20 -16 21 -21 10 -35 -12 -14 -16
-14 -42 0 -28 14 -37 33 -22 47 11 12 30 8 54 -12z m126 -76 c24 -17 21 -45
-6 -45 -25 1 -54 27 -48 45 8 19 27 19 54 0z m130 -80 c25 -17 21 -45 -6 -45
-27 0 -55 25 -48 44 8 20 26 20 54 1z m3643 -266 c0 -23 152 -325 171 -339 17
-13 19 -23 13 -59 -11 -71 -29 -81 -136 -81 l-91 0 7 113 c3 61 9 174 13 249
3 76 10 135 15 132 4 -3 8 -10 8 -15z m218 -384 c-3 -3 -9 2 -12 12 -6 14 -5
15 5 6 7 -7 10 -15 7 -18z"/>
<path d="M5071 2464 c-45 -38 -54 -59 -61 -152 -6 -72 -11 -89 -42 -135 -48
-70 -53 -89 -29 -118 l19 -23 21 43 c18 34 33 47 77 67 48 21 54 27 54 54 0
19 -5 30 -14 30 -34 0 -48 123 -18 160 l18 22 24 -36 c14 -20 39 -41 57 -48
30 -11 31 -13 27 -62 -7 -68 10 -97 64 -112 23 -7 56 -22 72 -34 28 -20 31
-20 37 -4 20 53 -76 296 -137 348 -45 37 -125 37 -169 0z"/>
<path d="M1069 2415 c-62 -20 -83 -45 -75 -88 7 -38 42 -94 67 -110 9 -5 28
-7 42 -3 22 5 27 12 27 36 0 23 6 33 23 39 29 11 54 98 34 118 -20 20 -69 23
-118 8z"/>
<path d="M4762 1620 l3 -274 28 -1 27 -2 0 247 0 246 -30 29 -30 29 2 -274z"/>
<path d="M4980 1875 c0 -8 -4 -15 -10 -15 -5 0 -9 -3 -8 -7 4 -11 -24 -49 -42
-56 -8 -4 -2 -4 15 -1 37 7 55 21 55 43 0 14 2 14 10 1 8 -13 10 -13 10 2 0
23 -11 48 -21 48 -5 0 -9 -7 -9 -15z"/>
<path d="M942 1480 c0 -19 2 -27 5 -17 2 9 2 25 0 35 -3 9 -5 1 -5 -18z"/>
<path d="M942 1290 c0 -14 2 -19 5 -12 2 6 2 18 0 25 -3 6 -5 1 -5 -13z"/>
<path d="M921 1284 c0 -11 3 -14 6 -6 3 7 2 16 -1 19 -3 4 -6 -2 -5 -13z"/>
<path d="M4186 1231 c-7 -11 18 -33 27 -24 4 3 7 12 7 20 0 15 -26 18 -34 4z"/>
<path d="M931 1143 c-1 -17 16 -25 25 -12 4 7 3 9 -4 5 -5 -3 -13 0 -15 6 -4
9 -6 10 -6 1z"/>
<path d="M905 1129 c-4 -6 -5 -12 -2 -15 2 -3 7 2 10 11 7 17 1 20 -8 4z"/>
<path d="M983 1026 c7 -14 13 -23 15 -21 7 6 -9 45 -18 45 -4 0 -3 -11 3 -24z"/>
<path d="M1006 1042 c5 -4 12 -11 15 -15 3 -5 9 -2 12 5 3 9 -3 14 -15 15 -11
1 -16 -1 -12 -5z"/>
<path d="M851 1004 c0 -12 6 -37 13 -55 l15 -34 -2 32 c-1 17 -5 29 -9 27 -4
-2 -9 8 -11 23 -3 20 -4 22 -6 7z"/>
<path d="M960 945 c0 -5 4 -16 9 -23 6 -11 10 -10 15 4 3 9 4 19 1 22 -3 3 -5
-1 -5 -9 0 -11 -2 -11 -10 1 -5 8 -10 11 -10 5z"/>
<path d="M830 910 c0 -11 4 -20 9 -20 5 0 7 9 4 20 -3 11 -7 20 -9 20 -2 0 -4
-9 -4 -20z"/>
<path d="M920 875 c-7 -9 -8 -15 -2 -15 5 0 12 7 16 15 3 8 4 15 2 15 -2 0 -9
-7 -16 -15z"/>
<path d="M931 834 c0 -11 3 -14 6 -6 3 7 2 16 -1 19 -3 4 -6 -2 -5 -13z"/>
<path d="M822 830 c0 -8 3 -24 7 -34 7 -19 8 -19 13 2 4 12 2 20 -2 17 -5 -3
-11 3 -13 12 -3 12 -5 13 -5 3z"/>
<path d="M861 824 c0 -11 3 -14 6 -6 3 7 2 16 -1 19 -3 4 -6 -2 -5 -13z"/>
<path d="M905 809 c-5 -8 -4 -10 4 -5 8 6 10 0 6 -21 -5 -27 -5 -27 5 -4 11
26 -2 52 -15 30z"/>
<path d="M891 694 c0 -11 3 -14 6 -6 3 7 2 16 -1 19 -3 4 -6 -2 -5 -13z"/>
<path d="M812 675 c0 -16 2 -22 5 -12 2 9 2 23 0 30 -3 6 -5 -1 -5 -18z"/>
<path d="M4300 690 c0 -6 38 -11 90 -12 50 0 109 -2 132 -2 25 -1 43 4 46 12
3 9 -28 12 -132 12 -84 0 -136 -4 -136 -10z"/>
</g>
</svg>
